<svg id="Layer_1" data-name="Layer 1" class="h-full w-full" xmlns="http://www.w3.org/2000/svg" viewBox="0 0 434.3 183.13"><defs><style>.cls-1{fill:#50d776;}.cls-2{fill:#fff;}</style></defs><rect class="cls-1" x="11.57" y="11.57" width="160" height="160" rx="48.42" transform="translate(-33.52 58.05) rotate(-30)"/><path class="cls-2" d="M80.82,145.32H59.32a21.5,21.5,0,0,1-21.5-21.5V59.32a21.49,21.49,0,0,1,21.5-21.5h21.5Z"/><path class="cls-2" d="M37.82,102.32v21.5h43a21.5,21.5,0,0,1,21.5,21.5h43a43,43,0,0,0-43-43Z"/><path class="cls-2" d="M67.91,37.82v21.5H80.82a21.5,21.5,0,0,1,21.5,21.5h0a21.51,21.51,0,0,1-21.5,21.5H67.91v21.5h34.41a43,43,0,0,0,43-43h0a43,43,0,0,0-43-43Z"/><path d="M238.11,73h10.36L258,86.76H270.3l-11-15.85.07,0a16.37,16.37,0,0,0,7.39-6.06,17,17,0,0,0,2.61-9.54,17.07,17.07,0,0,0-2.61-9.51,16.69,16.69,0,0,0-7.39-6.16A27.76,27.76,0,0,0,248,37.46H226.63v49.3h11.48Zm17.11-24a7.71,7.71,0,0,1,2.68,6.3,7.82,7.82,0,0,1-2.68,6.34q-2.67,2.25-7.88,2.25h-9.23V46.76h9.23Q252.55,46.76,255.22,49Z"/><path d="M331.17,86.72a11.22,11.22,0,0,0,4-1.79l-2.89-7.75a7.15,7.15,0,0,1-4.5,1.41,4.34,4.34,0,0,1-3.35-1.34,5.29,5.29,0,0,1-1.23-3.73V58.17h9.37V49.72h-9.37V40.49H312.12v9.23h-5.84v7.41a18,18,0,0,0-6.87-6.43,21,21,0,0,0-10-2.39A21.43,21.43,0,0,0,279,50.81a18.08,18.08,0,0,0-7.18,6.93,19.67,19.67,0,0,0-2.57,10.07,18.45,18.45,0,0,0,10.21,17,26.77,26.77,0,0,0,20.42.95,17,17,0,0,0,6.55-4.55l-5.84-6.33a13,13,0,0,1-4.19,2.74,14.09,14.09,0,0,1-5.25.92,13.16,13.16,0,0,1-5.92-1.23,9.26,9.26,0,0,1-5-6.38h28.64c.05-.47.1-1,.15-1.51s.07-1,.07-1.44a20.54,20.54,0,0,0-2.22-9.79h5.24V73.73q0,6.76,3.74,10.18t10.42,3.41A19.73,19.73,0,0,0,331.17,86.72ZM284.48,57.85a9.85,9.85,0,0,1,5-1.23,9.62,9.62,0,0,1,4.93,1.23,8.71,8.71,0,0,1,3.31,3.42,9.19,9.19,0,0,1,1,3.23H280.11a9.7,9.7,0,0,1,1-3.2A8.6,8.6,0,0,1,284.48,57.85Z"/><path d="M325.36,102.66l2.4-4.79a11.36,11.36,0,0,0,1-2.61,9.63,9.63,0,0,0,.25-2,3.94,3.94,0,0,0-1.31-3,5,5,0,0,0-3.55-1.19,5.14,5.14,0,0,0-3.52,1.16,3.82,3.82,0,0,0-1.34,3.06,3.9,3.9,0,0,0,1.23,3,3.81,3.81,0,0,0,1.35.77l-1.74,5.57Z"/><path d="M390.36,78.59A4.32,4.32,0,0,1,387,77.25a5.29,5.29,0,0,1-1.23-3.73V58.17h9.36V49.72h-9.36V40.49H374.73v9.23h-5.85v7.41A18,18,0,0,0,362,50.7a21,21,0,0,0-10-2.39,21.36,21.36,0,0,0-10.38,2.5,18.1,18.1,0,0,0-7.19,6.93,19.77,19.77,0,0,0-2.57,10.07,18.49,18.49,0,0,0,10.21,17,26.79,26.79,0,0,0,20.43.95A17,17,0,0,0,369,81.19l-5.84-6.33A13,13,0,0,1,359,77.6a14.05,14.05,0,0,1-5.25.92,13.09,13.09,0,0,1-5.91-1.23,9.26,9.26,0,0,1-5-6.38h28.64c.05-.47.09-1,.14-1.51s.07-1,.07-1.44a20.54,20.54,0,0,0-2.22-9.79h5.25V73.73q0,6.76,3.73,10.18t10.42,3.41a19.87,19.87,0,0,0,4.9-.6,11.3,11.3,0,0,0,4-1.79l-2.89-7.75A7.16,7.16,0,0,1,390.36,78.59ZM347.09,57.85a9.79,9.79,0,0,1,5-1.23A9.62,9.62,0,0,1,357,57.85a8.71,8.71,0,0,1,3.31,3.42,9,9,0,0,1,1,3.23H342.72a9.93,9.93,0,0,1,1-3.2A8.63,8.63,0,0,1,347.09,57.85Z"/><path d="M431.7,57.46a18,18,0,0,0-7.08-6.76,21,21,0,0,0-10-2.39,21.4,21.4,0,0,0-10.39,2.5A18,18,0,0,0,397,57.74a19.67,19.67,0,0,0-2.57,10.07,18.45,18.45,0,0,0,10.21,17,26.77,26.77,0,0,0,20.42.95,17,17,0,0,0,6.55-4.55l-5.85-6.33a12.81,12.81,0,0,1-4.19,2.74,14,14,0,0,1-5.24.92,13.14,13.14,0,0,1-5.92-1.23,9.26,9.26,0,0,1-5-6.38h28.64c.05-.47.1-1,.14-1.51s.07-1,.07-1.44A20.09,20.09,0,0,0,431.7,57.46Zm-22,.39a9.82,9.82,0,0,1,5-1.23,9.65,9.65,0,0,1,4.93,1.23,8.71,8.71,0,0,1,3.31,3.42,9.4,9.4,0,0,1,1,3.23H405.32a9.7,9.7,0,0,1,1-3.2A8.54,8.54,0,0,1,409.69,57.85Z"/><path d="M264.2,122.48c-.42-.18-.88-.33-1.33-.48a12.28,12.28,0,0,0,4.61-4.06,11.8,11.8,0,0,0,1.9-6.72,11.09,11.09,0,0,0-4.68-9.3c-3.13-2.35-7.78-3.52-14-3.52H226.63v49.29h25.5q9.72,0,14.71-3.55a11.45,11.45,0,0,0,5-9.9,12.46,12.46,0,0,0-2-7.25A12.94,12.94,0,0,0,264.2,122.48ZM249.31,107a11.91,11.91,0,0,1,6.37,1.41,4.8,4.8,0,0,1,2.22,4.37,4.89,4.89,0,0,1-2.22,4.4,11.71,11.71,0,0,1-6.37,1.44H238V107ZM258,137.62a12.47,12.47,0,0,1-6.69,1.48H238V126.92h13.38A12.47,12.47,0,0,1,258,128.4a5.1,5.1,0,0,1,2.33,4.65A5,5,0,0,1,258,137.62Z"/><path d="M301.35,128.61a12.27,12.27,0,0,1-1.16,5.63,7.94,7.94,0,0,1-3.14,3.38,8.8,8.8,0,0,1-4.5,1.13,7.26,7.26,0,0,1-5.67-2.22q-2-2.22-2-7V109.81h-11v21.41a20.07,20.07,0,0,0,2,9.57,12.94,12.94,0,0,0,5.7,5.64,18.66,18.66,0,0,0,8.45,1.83,16.42,16.42,0,0,0,8-2,13.11,13.11,0,0,0,3.73-3.05v4.49h10.43V109.81H301.35Z"/><path d="M347.93,111a17.57,17.57,0,0,0-8.06-1.8,17.93,17.93,0,0,0-8.66,2.05,14.08,14.08,0,0,0-3.87,3.07v-4.55h-10.5v37.88h11V129a12.34,12.34,0,0,1,1.16-5.77,7.9,7.9,0,0,1,3.24-3.31,9.7,9.7,0,0,1,4.68-1.13,7.32,7.32,0,0,1,5.67,2.18q2,2.19,2,6.76v20h11V126a19.51,19.51,0,0,0-2.05-9.47A13.06,13.06,0,0,0,347.93,111Z"/><path d="M387.58,111.64a20.88,20.88,0,0,0-10-2.4,21.51,21.51,0,0,0-10.39,2.5,18,18,0,0,0-7.18,6.94,19.67,19.67,0,0,0-2.57,10.07,19,19,0,0,0,2.67,10,18.74,18.74,0,0,0,7.54,6.93,26.64,26.64,0,0,0,20.42.95,17,17,0,0,0,6.55-4.54l-5.85-6.34a13,13,0,0,1-4.19,2.75,14,14,0,0,1-5.24.92,13,13,0,0,1-5.92-1.24,9.23,9.23,0,0,1-5-6.37h28.64c.05-.47.1-1,.14-1.51s.07-1,.07-1.45a20.18,20.18,0,0,0-2.6-10.49A18,18,0,0,0,387.58,111.64Zm-14.93,7.15a9.83,9.83,0,0,1,5-1.24,9.65,9.65,0,0,1,4.93,1.24,8.82,8.82,0,0,1,3.31,3.41,9.46,9.46,0,0,1,1,3.24H368.28a9.7,9.7,0,0,1,1-3.2A8.54,8.54,0,0,1,372.65,118.79Z"/></svg>